<?xml version="1.0" encoding="UTF-8"?>
<svg xmlns="http://www.w3.org/2000/svg" width="147" height="28" viewBox="0 0 147 28" fill="none">
  <g clip-path="url(#clip0_79_33)">
    <path d="M9.57623 27.1479C6.06909 27.1479 2.41111 25.6772 0.148438 23.377L1.58146 21.6424C3.54244 23.7164 6.71018 24.9608 9.65165 24.9608C13.4982 24.9608 15.874 23.0753 15.874 19.8701C15.874 15.7599 11.5372 14.9303 7.42669 13.6482C3.91955 12.5169 0.86495 11.0463 0.86495 6.86061C0.86495 2.75037 4.0704 0.0353394 8.97285 0.0353394C12.1406 0.0353394 15.2329 1.27972 17.1939 3.27829L15.7986 5.01289C14.0639 3.20287 11.4618 2.26015 8.85972 2.26015C5.35258 2.26015 3.16533 4.07017 3.16533 6.70978C3.16533 9.99043 6.29536 10.9709 9.91563 12.0644C13.9507 13.2334 18.2121 14.704 18.2121 19.7193C18.2121 24.282 14.8558 27.1479 9.57623 27.1479ZM21.6968 13.9498V13.2711C21.6968 5.31456 26.7501 0.110758 33.8021 0.110758H34.0661C41.1181 0.110758 46.1337 5.31456 46.1337 13.2711V13.9498C46.1337 21.9064 41.1181 27.1102 34.0661 27.1102H33.8021C26.7501 27.1102 21.6968 21.9064 21.6968 13.9498ZM24.0726 13.9876C24.0726 20.5112 28.1832 24.8854 33.8398 24.8854H33.9907C39.6851 24.8854 43.7956 20.5112 43.7956 13.9876V13.2334C43.7956 6.70978 39.6851 2.33557 34.0284 2.33557H33.8021C28.1832 2.33557 24.0726 6.70978 24.0726 13.2334V13.9876ZM51.8702 26.8085V0.412425H54.6985L68.0106 23.1885H68.2368V0.412425H70.4995V26.8085H67.822L54.4723 3.95704H54.1329V26.8085H51.8702ZM100.803 26.8085L110.457 0.412425H113.814L123.43 26.8085H120.979L118.113 18.852H106.158L103.292 26.8085H100.803ZM106.875 16.7026H117.396L112.23 2.4487H112.004L106.875 16.7026ZM127.624 26.8085V0.412425H135.619C141.162 0.412425 144.519 3.39141 144.519 8.21813V8.59521C144.519 12.2907 142.444 14.9303 138.862 15.873L146.517 26.8085H143.613L136.448 16.3255H129.887V26.8085H127.624ZM129.887 14.1761H135.543C139.842 14.1761 142.18 12.1021 142.18 8.63292V8.25583C142.18 4.67351 139.767 2.56182 135.543 2.56182H129.887V14.1761Z" fill="black"></path>
    <path d="M78.3691 26.6907V0.294586H80.6318V12.0597H94.4341L96.6968 11.9466V26.6907H94.4341V14.2091H80.6318V26.6907H78.3691Z" fill="#A57865"></path>
  </g>
  <defs>
    <clipPath id="clip0_79_33">
      <rect width="146.72" height="27.3977" fill="white"></rect>
    </clipPath>
  </defs>
</svg>
