<?xml version="1.0" encoding="UTF-8"?>
<svg xmlns="http://www.w3.org/2000/svg" width="131" height="66" viewBox="0 0 131 66" fill="none">
  <g clip-path="url(#clip0_187_9)">
    <path d="M13.8323 48.7995C10.9639 48.7995 7.97206 47.6186 6.12146 45.7715L7.29351 44.3786C8.89736 46.044 11.4882 47.0432 13.894 47.0432C17.04 47.0432 18.9831 45.5293 18.9831 42.9555C18.9831 39.655 15.4362 38.9889 12.0742 37.9594C9.2058 37.051 6.70748 35.8701 6.70748 32.509C6.70748 29.2086 9.32917 27.0284 13.3388 27.0284C15.9297 27.0284 18.4588 28.0277 20.0627 29.6325L18.9215 31.0253C17.5027 29.5719 15.3745 28.8149 13.2463 28.8149C10.3778 28.8149 8.58893 30.2684 8.58893 32.3879C8.58893 35.0222 11.1489 35.8095 14.1099 36.6876C17.4101 37.6263 20.8954 38.8072 20.8954 42.8344C20.8954 46.4982 18.1504 48.7995 13.8323 48.7995ZM23.7456 38.2016V37.6566C23.7456 31.2676 27.8786 27.089 33.6463 27.089H33.8622C39.6299 27.089 43.7321 31.2676 43.7321 37.6566V38.2016C43.7321 44.5906 39.6299 48.7692 33.8622 48.7692H33.6463C27.8786 48.7692 23.7456 44.5906 23.7456 38.2016ZM25.6887 38.2319C25.6887 43.4702 29.0506 46.9827 33.6771 46.9827H33.8005C38.4578 46.9827 41.8198 43.4702 41.8198 38.2319V37.6263C41.8198 32.3879 38.4578 28.8755 33.8313 28.8755H33.6463C29.0506 28.8755 25.6887 32.3879 25.6887 37.6263V38.2319ZM48.4239 48.5269V27.3312H50.7371L61.6248 45.6201H61.8099V27.3312H63.6605V48.5269H61.4706L50.5521 30.1775H50.2745V48.5269H48.4239ZM88.4456 48.5269L96.3415 27.3312H99.0865L106.952 48.5269H104.947L102.603 42.1379H92.8253L90.4812 48.5269H88.4456ZM93.4113 40.412H102.017L97.7911 28.9663H97.606L93.4113 40.412ZM110.382 48.5269V27.3312H116.921C121.454 27.3312 124.2 29.7233 124.2 33.5991V33.9019C124.2 36.8693 122.503 38.9889 119.573 39.7459L125.834 48.5269H123.459L117.599 40.1092H112.232V48.5269H110.382ZM112.232 38.3833H116.859C120.375 38.3833 122.287 36.7179 122.287 33.9322V33.6294C122.287 30.7528 120.313 29.0572 116.859 29.0572H112.232V38.3833Z" fill="black"></path>
    <path d="M70.0964 48.4323V27.2366H71.947V36.6838H83.2357L85.0863 36.593V48.4323H83.2357V38.4097H71.947V48.4323H70.0964Z" fill="#A57865"></path>
  </g>
  <defs>
    <clipPath id="clip0_187_9">
      <rect width="120" height="22" fill="white" transform="translate(6 27)"></rect>
    </clipPath>
  </defs>
</svg>
