<?xml version="1.0" encoding="UTF-8"?>
<svg xmlns="http://www.w3.org/2000/svg" width="131" height="66" viewBox="0 0 131 66" fill="none">
  <g clip-path="url(#clip0_187_9)">
    <path d="M13.8323 43.7995C10.9639 43.7995 7.97206 42.6186 6.12146 40.7715L7.29351 39.3786C8.89736 41.044 11.4882 42.0432 13.894 42.0432C17.04 42.0432 18.9831 40.5293 18.9831 37.9555C18.9831 34.655 15.4362 33.9889 12.0742 32.9594C9.2058 32.051 6.70748 30.8701 6.70748 27.509C6.70748 24.2086 9.32917 22.0284 13.3388 22.0284C15.9297 22.0284 18.4588 23.0277 20.0627 24.6325L18.9215 26.0253C17.5027 24.5719 15.3745 23.8149 13.2463 23.8149C10.3778 23.8149 8.58893 25.2684 8.58893 27.3879C8.58893 30.0222 11.1489 30.8095 14.1099 31.6876C17.4101 32.6263 20.8954 33.8072 20.8954 37.8344C20.8954 41.4982 18.1504 43.7995 13.8323 43.7995ZM23.7456 33.2016V32.6566C23.7456 26.2676 27.8786 22.089 33.6463 22.089H33.8622C39.6299 22.089 43.7321 26.2676 43.7321 32.6566V33.2016C43.7321 39.5906 39.6299 43.7692 33.8622 43.7692H33.6463C27.8786 43.7692 23.7456 39.5906 23.7456 33.2016ZM25.6887 33.2319C25.6887 38.4702 29.0506 41.9827 33.6771 41.9827H33.8005C38.4578 41.9827 41.8198 38.4702 41.8198 33.2319V32.6263C41.8198 27.3879 38.4578 23.8755 33.8313 23.8755H33.6463C29.0506 23.8755 25.6887 27.3879 25.6887 32.6263V33.2319ZM48.4239 43.5269V22.3312H50.7371L61.6248 40.6201H61.8099V22.3312H63.6605V43.5269H61.4706L50.5521 25.1775H50.2745V43.5269H48.4239ZM88.4456 43.5269L96.3415 22.3312H99.0865L106.952 43.5269H104.947L102.603 37.1379H92.8253L90.4812 43.5269H88.4456ZM93.4113 35.412H102.017L97.7911 23.9663H97.606L93.4113 35.412ZM110.382 43.5269V22.3312H116.921C121.454 22.3312 124.2 24.7233 124.2 28.5991V28.9019C124.2 31.8693 122.503 33.9889 119.573 34.7459L125.834 43.5269H123.459L117.599 35.1092H112.232V43.5269H110.382ZM112.232 33.3833H116.859C120.375 33.3833 122.287 31.7179 122.287 28.9322V28.6294C122.287 25.7528 120.313 24.0572 116.859 24.0572H112.232V33.3833Z" fill="black"></path>
    <path d="M70.0964 43.4323V22.2366H71.947V31.6838H83.2357L85.0863 31.593V43.4323H83.2357V33.4097H71.947V43.4323H70.0964Z" fill="#A57865"></path>
  </g>
  <defs>
    <clipPath id="clip0_187_9">
      <rect width="120" height="22" fill="white" transform="translate(6 22)"></rect>
    </clipPath>
  </defs>
</svg>
